<?xml version="1.0" standalone="no"?>
<!DOCTYPE svg PUBLIC "-//W3C//DTD SVG 20010904//EN"
 "http://www.w3.org/TR/2001/REC-SVG-20010904/DTD/svg10.dtd">
<svg version="1.0" xmlns="http://www.w3.org/2000/svg"
 width="500.000000pt" height="500.000000pt" viewBox="0 0 500.000000 500.000000"
 preserveAspectRatio="xMidYMid meet">
<metadata>
Created by potrace 1.14, written by Peter Selinger 2001-2017
</metadata>
<g transform="translate(0.000000,500.000000) scale(0.100000,-0.100000)"
fill="#000000" stroke="none">
<path d="M760 2500 l0 -480 1740 0 1740 0 0 480 0 480 -1740 0 -1740 0 0 -480z
m3450 0 l0 -450 -1715 0 -1715 0 0 450 0 450 1715 0 1715 0 0 -450z"/>
<path d="M1000 2560 c0 -82 3 -100 15 -100 11 0 15 11 15 40 l0 40 41 0 c52 0
48 24 -4 28 -34 3 -37 6 -37 33 0 27 2 29 40 29 29 0 40 4 40 15 0 12 -13 15
-55 15 l-55 0 0 -100z"/>
<path d="M1211 2598 c-46 -106 -54 -128 -46 -136 4 -4 14 3 22 16 12 18 25 22
64 22 39 0 49 -4 54 -20 3 -11 13 -20 21 -20 11 0 10 9 -5 48 -46 114 -64 152
-73 152 -5 0 -21 -28 -37 -62z m55 -24 c18 -43 16 -46 -24 -42 l-30 3 15 38
c8 20 17 37 20 37 2 0 11 -16 19 -36z"/>
<path d="M1377 2654 c-12 -12 4 -24 34 -24 l29 0 0 -85 c0 -69 3 -85 15 -85
12 0 15 16 15 85 l0 85 30 0 c20 0 30 5 30 15 0 12 -15 15 -73 15 -41 0 -77
-3 -80 -6z"/>
<path d="M1590 2560 c0 -82 3 -100 15 -100 12 0 15 18 15 100 0 82 -3 100 -15
100 -12 0 -15 -18 -15 -100z"/>
<path d="M1700 2560 c0 -115 18 -137 22 -27 l3 72 30 -47 c17 -27 35 -48 41
-48 7 0 26 21 43 48 l31 47 0 -72 c0 -58 3 -73 15 -73 12 0 15 18 15 100 0
120 -12 129 -62 45 -18 -30 -36 -55 -40 -55 -4 0 -24 25 -44 55 -20 30 -41 55
-45 55 -5 0 -9 -45 -9 -100z"/>
<path d="M1992 2560 c-32 -79 -37 -100 -25 -100 8 0 17 9 20 20 4 17 14 20 58
20 44 0 54 -3 58 -20 3 -11 12 -20 20 -20 12 0 6 22 -26 100 -23 55 -46 100
-52 100 -6 0 -30 -45 -53 -100z m88 -26 c0 -2 -16 -4 -36 -4 -30 0 -35 3 -29
18 4 9 12 30 17 45 l11 29 18 -42 c11 -23 19 -44 19 -46z"/>
<path d="M2190 2561 c0 -83 3 -101 15 -101 11 0 15 12 15 45 l0 45 50 0 50 0
0 -45 c0 -34 4 -45 15 -45 13 0 15 15 13 97 -2 66 -7 98 -15 101 -9 2 -13 -10
-13 -42 l0 -46 -49 0 -50 0 -3 42 c-2 23 -9 43 -15 46 -10 3 -13 -21 -13 -97z"/>
<path d="M2836 2568 c-20 -51 -36 -96 -36 -100 0 -5 14 -8 30 -8 20 0 30 5 30
15 0 11 11 15 35 15 22 0 38 -6 41 -15 4 -9 19 -15 36 -15 25 0 29 3 24 18
-60 162 -71 182 -98 182 -24 0 -29 -8 -62 -92z m77 -18 c4 -15 0 -20 -15 -20
-14 0 -18 5 -14 16 3 9 6 20 6 25 0 17 17 1 23 -21z"/>
<path d="M3030 2560 l0 -100 25 0 c22 0 25 4 25 35 0 25 5 35 15 35 9 0 23
-16 32 -35 14 -30 22 -35 51 -35 l34 0 -26 45 -25 46 20 45 c25 60 24 64 -10
64 -25 0 -31 -6 -41 -35 -8 -24 -18 -35 -31 -35 -15 0 -19 7 -19 35 0 31 -3
35 -25 35 l-25 0 0 -100z"/>
<path d="M3286 2628 c-32 -75 -66 -162 -66 -165 0 -11 59 0 64 12 3 9 18 15
40 15 21 0 36 -6 40 -15 3 -9 18 -15 35 -15 l29 0 -38 98 c-33 86 -41 97 -64
100 -22 3 -29 -2 -40 -30z m51 -94 c-3 -3 -12 -4 -20 -2 -11 2 -12 9 -5 28
l10 25 11 -23 c5 -12 8 -25 4 -28z"/>
<path d="M3450 2560 l0 -100 25 0 c23 0 25 4 25 45 0 25 3 45 8 45 4 -1 22
-21 40 -45 24 -33 40 -45 58 -45 l25 0 -3 98 -3 97 -27 3 c-27 3 -28 2 -28
-48 l0 -52 -40 51 c-24 31 -48 51 -60 51 -19 0 -20 -7 -20 -100z"/>
<path d="M3670 2560 l0 -100 59 0 c74 0 90 6 102 38 7 18 6 31 -5 47 -10 15
-11 26 -5 32 18 18 5 57 -21 70 -14 7 -49 13 -77 13 l-53 0 0 -100z m100 35
c0 -9 -9 -15 -25 -15 -16 0 -25 6 -25 15 0 9 9 15 25 15 16 0 25 -6 25 -15z
m5 -75 c0 -23 -49 -20 -53 3 -3 15 2 18 25 15 17 -2 28 -9 28 -18z"/>
<path d="M3870 2560 l0 -100 25 0 25 0 0 100 0 100 -25 0 -25 0 0 -100z"/>
</g>
</svg>
